<svg xmlns="http://www.w3.org/2000/svg" width="89" height="26" viewBox="0 0 89 26"><g fill-rule="evenodd" clip-rule="evenodd" fill="#ed0039"><path d="M88.855 13.017C88.855 20.574 83.824 26 76.414 26c-7 0-12.203-4.979-12.203-12.983C64.211 4.422 70.392 0 76.646 0c6.004 0 12.209 4.192 12.209 13.017zm-6.058 0c0-3.608-1.748-7.795-6.282-7.795-4.113 0-6.276 3.537-6.276 7.795 0 4.786 2.669 7.796 6.276 7.796 4.534-.001 6.282-4.142 6.282-7.796zM61.991 23.636c-1.485.993-4.604 2.34-8.856 2.34-8.356 0-12.484-5.765-12.484-12.81C40.65 5.238 46.262 0 53.596 0c3.632 0 5.962.605 8.029 1.616l-2.118 4.887c-1.577-.659-3.393-1.047-5.55-1.047-5.296 0-7.096 3.169-7.096 7.548 0 4.727 2.414 7.791 6.623 7.791 1.523 0 2.667-.326 3.015-.555v-4.396H52.23l.008-4.975h9.753v12.767zM33.449 25.565c-.833-3.027-2.22-5.329-3.365-6.802-.97-1.243-1.722-1.509-1.722-1.509-.777.022-1.316.02-2.032-.015v8.325h-5.836V.668a46.558 46.558 0 0 1 3.398-.426 43.2 43.2 0 0 1 4.016-.183c1.968 0 3.64.218 5.011.651 1.373.435 2.492 1.03 3.365 1.785a6.588 6.588 0 0 1 1.918 2.722 8.484 8.484 0 0 1 .618 3.226c0 1.509-.366 2.971-1.174 4.223-.712 1.11-1.908 2.248-3.149 3.032v.108c2.773 1.268 4.34 5.352 5.862 9.758h-6.91v.001zm-.479-16.98c0-1.052-.38-1.896-1.133-2.467-.759-.595-1.796-.886-3.054-.905-.138-.003-.683.003-1.005.013-.32.012-1.178.088-1.447.135v7.173a19.26 19.26 0 0 0 1.853.083c1.396 0 2.693-.384 3.52-1.024.821-.663 1.266-1.726 1.266-3.008zM0 19.604V.414h17.13l.007 5.351H5.832v4.305h9.567l.004 5.081H5.832v2.69c0 1.692.996 2.406 2.29 2.406l9.476-.001.008 5.319H5.914C1.536 25.565 0 23.546 0 19.604z"/></g></svg>