<?xml version="1.0" encoding="utf-8"?>
<!-- Generator: Adobe Illustrator 19.2.0, SVG Export Plug-In . SVG Version: 6.00 Build 0)  -->
<svg version="1.1" id="Ebene_1" xmlns="http://www.w3.org/2000/svg" xmlns:xlink="http://www.w3.org/1999/xlink" x="0px" y="0px"
	 viewBox="0 0 475.3 129.1" style="enable-background:new 0 0 475.3 129.1;" xml:space="preserve">
<style type="text/css">
	.st0{fill:#007B32;}
	.st1{fill:#E3000B;}
</style>
<g id="Compensa_1_">
	<path class="st0" d="M25.1,55.2c-10.4,0-17.7-6.7-17.7-16.3c0-9.4,7.5-16.5,17.4-16.5c5,0,9.7,1.4,15.2,4.5l0.6,0.3v-7.8l-0.2-0.1
		c-6.2-2.6-10.8-3.7-15.5-3.7C10.5,15.6,0,25.6,0,39.3C0,48,6.7,61.7,24.5,61.7c7.7,0,12.6-2,16.4-3.9l0.2-0.1v-7.9l-0.6,0.4
		C35.5,53.5,30,55.2,25.1,55.2z M69.5,15.8c-13.9,0-24.4,9.9-24.4,23c0,11.2,8.5,23,24.2,23c16.1,0,24.5-11.6,24.5-23
		C94,25.4,83.7,15.8,69.5,15.8z M69.5,55.2c-9.7,0-17-7.1-17-16.4c0-9.5,7.1-16.4,17-16.4s17,6.9,17,16.4
		C86.6,48.2,79.2,55.2,69.5,55.2z M121.1,34.2c-0.6-0.7-14.6-17.9-14.6-17.9h-6.6v44.9h7.2c0,0,0-31.9,0-33.8
		c1.1,1.3,13.3,16.5,13.3,16.5h1.4c0,0,12.2-15.1,13.3-16.5c0,1.8,0,33.8,0,33.8h7.2V16.3h-6.5C135.8,16.3,121.7,33.5,121.1,34.2z
		 M165.8,16.3h-14.3v44.9h7.2c0,0,0-18.3,0-19.1c0.7,0,6.3,0,6.3,0c9.7,0,15.5-4.8,15.5-12.8C180.5,23.1,176.6,16.3,165.8,16.3z
		 M165.6,35.7c0,0-6.2,0-6.9,0V22.9c0.7,0,7.1,0,7.1,0c6.5,0,7.2,4.4,7.2,6.3C173,33.3,170.3,35.7,165.6,35.7z M193.1,41.9
		c0.8,0,18.3,0,18.3,0v-6.5c0,0-17.5,0-18.3,0V22.9c0.8,0,18.9,0,18.9,0v-6.5h-26.1v44.9h26.7v-6.5c0,0-18.7,0-19.5,0L193.1,41.9
		L193.1,41.9z M254.5,49.8c-1.4-1.5-29.7-33.5-29.7-33.5h-5.7v44.9h6.8c0,0,0-31.3,0-33.3c1.3,1.5,29.2,33.3,29.2,33.3h6.1V16.3
		h-6.8C254.5,16.3,254.5,47.8,254.5,49.8z M283.1,34.8c-4.1-2.3-7.6-4.3-7.6-7.7c0-2.9,2.8-4.8,6.7-4.8c3.6,0,7,1.5,10.2,4.5
		l0.7,0.6v-8.3L293,19c-3.2-2.1-6.7-3.2-10.2-3.2c-8.5,0-14,4.8-14,12.2c0,6.7,5.8,10.1,10.9,13.2c4.4,2.6,8.5,5.1,8.5,9.1
		c0,2-1.9,5.2-6.9,5.2c-4.3,0-8.2-2.2-11.4-6.2l-0.7-0.9v9.4l0.1,0.1c3.8,2.8,7.9,4.1,12.8,4.1c7.5,0,12.9-5.2,12.9-12.4
		C294.8,41.3,288.6,37.9,283.1,34.8z M321.1,16.1h-5l-19.5,45.2h7.4c0,0,5.4-12.5,5.6-13h18.5c0.2,0.4,5.9,13,5.9,13h7.4L321.1,16.1
		z M312.4,41.8c0.4-1,5.5-13.1,6.1-14.6c0.6,1.5,6.1,13.6,6.6,14.6H312.4z"/>
	<g>
		<path class="st0" d="M367.5,61.1l2.5,0.2c0,0,38.5-0.2,41.9-0.2c-14.3-10.4-34.6-25.2-36-25.9c-2-0.9-4.1-1.3-6.2-1.3
			c-7.6,0-13.5,6-13.5,13.6C356.3,55.3,361.8,59.9,367.5,61.1z"/>
		<path class="st0" d="M394.5,10.9c-6.1-4.4-14.4-3.1-18.9,3.1c-1.9,2.6-2.7,5.4-2.7,8c0,3.7,1.6,7.1,3.8,9.5l1.9,1.7
			c0,0,31.3,22.5,34,24.5c-5.4-16.9-13.1-40.8-13.9-42.1C397.7,13.7,396.2,12.1,394.5,10.9z"/>
		<path class="st0" d="M412,0.7c-6.8,2.2-9.6,7.9-9.6,13.2c0,0.6,0,1.1,0.1,1.6L403,18c0,0,11.8,36.7,12.8,39.9
			c5.7-16.7,13.7-40.5,13.8-42.1c0.1-0.6,0.1-1.2,0.1-1.8c0-1.5-0.2-3-0.7-4.4C426.8,2.3,419.3-1.6,412,0.7z"/>
		<path class="st0" d="M461.9,33.8c-2.1,0-4.2,0.5-6.3,1.4c-1.3,0.6-21.6,15.4-35.9,25.8c3.4,0,41.9,0.2,41.9,0.2s2.5-0.2,2.6-0.3
			c5.5-1.1,11.1-5.7,11.1-13.5C475.3,39.8,469.4,33.8,461.9,33.8z"/>
		<path class="st0" d="M458.7,22.1c0-2.6-0.8-5.4-2.7-8.1c-4.5-6.2-12.8-7.5-18.9-3.1c-1.7,1.2-3.1,2.8-4.3,4.8
			c-0.8,1.4-9.8,29.4-13.8,42c6.8-4.8,34-24.5,34-24.5s1.8-1.7,1.9-1.8C457.2,29.1,458.7,25.7,458.7,22.1z"/>
	</g>
	<g>
		<rect x="0.6" y="78.6" class="st1" width="474.3" height="7.2"/>
	</g>
	<g>
		<path d="M12.5,128.9H9.4l-8.7-25.4h4.2L11,122l6.1-18.5h4.2L12.5,128.9z"/>
		<path d="M25.1,128.9v-25.4h4v25.4H25.1z"/>
		<path d="M36.1,128.9v-25.4H53v3.5H40.1v7.4h11v3.4h-11v7.6H53v3.5H36.1z"/>
		<path d="M74.9,128.9L62.7,111v17.9h-4v-25.4h3.7l12.3,17.9v-17.9h4v25.4H74.9z"/>
		<path d="M101.9,128.9L89.7,111v17.9h-4v-25.4h3.7l12.2,17.9v-17.9h4v25.4H101.9z"/>
		<path d="M127.9,128.9l-1.8-5.1h-10.4l-1.8,5.1h-4.3l9.7-25.4h3.2l9.7,25.4H127.9z M120.9,109.2l-4.1,11.3h8.1L120.9,109.2z"/>
		<path d="M145.1,128.9v-25.4h4v25.4H145.1z"/>
		<path d="M172.4,128.9L160.2,111v17.9h-4v-25.4h3.7l12.2,17.9v-17.9h4v25.4H172.4z"/>
		<path d="M190.2,129.1c-4,0-6.9-0.9-9.4-3.4l2.7-2.5c1.9,1.8,4.1,2.4,6.8,2.4c3.5,0,5.5-1.4,5.5-3.9c0-1.1-0.3-2-1-2.6
			s-1.3-0.8-2.9-1.1l-3.1-0.4c-2.1-0.3-3.9-1-5-2c-1.3-1.2-1.9-2.8-1.9-4.8c0-4.4,3.3-7.5,8.9-7.5c3.5,0,6,0.9,8.2,2.9l-2.6,2.4
			c-1.6-1.5-3.5-2-5.8-2c-3.1,0-4.8,1.7-4.8,4c0,0.9,0.3,1.7,1,2.4c0.7,0.6,1.7,1,3,1.2l3,0.4c2.4,0.4,3.8,0.9,4.9,1.9
			c1.4,1.2,2.2,3,2.2,5.2C199.7,126.3,195.7,129.1,190.2,129.1z"/>
		<path d="M214.3,129.1c-5.4,0-9.5-3.5-9.5-8.8v-16.9h4v16.7c0,3.4,2.2,5.5,5.5,5.5s5.5-2.1,5.5-5.5v-16.7h4v16.9
			C223.8,125.6,219.7,129.1,214.3,129.1z"/>
		<path d="M245.1,128.9l-5.6-10.7h-5v10.7h-4v-25.4h10.2c5,0,8.2,3.1,8.2,7.4c0,3.6-2.3,6-5.3,6.7l6.1,11.2L245.1,128.9L245.1,128.9
			z M240.4,107h-5.9v8h5.9c2.7,0,4.5-1.5,4.5-4S243.1,107,240.4,107z"/>
		<path d="M270.1,128.9l-1.8-5.1h-10.5l-1.8,5.1h-4.3l9.7-25.4h3.2l9.7,25.4H270.1z M263.2,109.2l-4.1,11.3h8.1L263.2,109.2z"/>
		<path d="M294.6,128.9L282.4,111v17.9h-4v-25.4h3.7l12.2,17.9v-17.9h4v25.4H294.6z"/>
		<path d="M313.8,129.1c-2.8,0-5.1-1-7-2.7c-2.6-2.5-2.6-5.3-2.6-10.2c0-4.9,0-7.7,2.6-10.2c1.8-1.7,4.2-2.7,7-2.7
			c3.3,0,5.4,1.1,7.4,3l-2.7,2.6c-1.4-1.3-2.5-2.1-4.7-2.1c-1.6,0-3,0.6-3.9,1.5c-1.3,1.3-1.6,2.8-1.6,7.9s0.3,6.6,1.6,7.9
			c0.9,1,2.3,1.5,3.9,1.5c2.2,0,3.4-0.8,4.7-2.1l2.7,2.6C319.3,128,317.2,129.1,313.8,129.1z"/>
		<path d="M326.8,128.9v-25.4h16.9v3.5h-12.9v7.4h11v3.4h-11v7.6h12.9v3.5H326.8z"/>
		<path d="M374.2,126.2c-1.9,1.9-4.3,2.9-7.2,2.9c-2.8,0-5.1-1-7-2.7c-2.6-2.5-2.6-5.3-2.6-10.2c0-4.9,0-7.7,2.6-10.2
			c1.8-1.7,4.1-2.7,7-2.7c3.6,0,5.6,1.1,8,3.4l-2.7,2.6c-1.7-1.6-2.9-2.5-5.3-2.5c-1.6,0-3,0.6-4,1.6c-1.3,1.4-1.6,2.8-1.6,7.9
			c0,5.1,0.2,6.6,1.6,7.9c0.9,1,2.4,1.5,4,1.5c1.8,0,3.2-0.6,4.2-1.8c1-1,1.3-2.5,1.3-4v-1.4H367v-3.3h9.6v3.8
			C376.5,122.3,375.9,124.4,374.2,126.2z"/>
		<path d="M397,128.9l-5.6-10.7h-5v10.7h-4v-25.4h10.3c5,0,8.2,3.1,8.2,7.4c0,3.6-2.3,6-5.3,6.7l6.1,11.2L397,128.9L397,128.9z
			 M392.3,107h-6v8h6c2.7,0,4.5-1.5,4.5-4S395,107,392.3,107z"/>
		<path d="M422.4,126.4c-1.8,1.8-4.2,2.7-7,2.7s-5.1-1-6.9-2.7c-2.6-2.5-2.6-5.3-2.6-10.2c0-4.9,0-7.7,2.6-10.2
			c1.8-1.7,4.1-2.7,6.9-2.7c2.8,0,5.2,1,7,2.7c2.6,2.5,2.5,5.3,2.5,10.2C424.9,121.1,425,123.9,422.4,126.4z M419.4,108.3
			c-0.9-1-2.4-1.6-4-1.6s-3,0.6-3.9,1.6c-1.3,1.4-1.6,2.8-1.6,7.9c0,5.1,0.3,6.5,1.6,7.9c0.9,1,2.4,1.6,3.9,1.6c1.6,0,3-0.6,4-1.6
			c1.3-1.3,1.6-2.8,1.6-7.9C420.9,111.1,420.7,109.7,419.4,108.3z"/>
		<path d="M440.1,129.1c-5.4,0-9.5-3.5-9.5-8.8v-16.9h4v16.7c0,3.4,2.2,5.5,5.5,5.5s5.5-2.1,5.5-5.5v-16.7h4v16.9
			C449.6,125.6,445.5,129.1,440.1,129.1z"/>
		<path d="M466.3,118.9h-6v10h-4v-25.4h10.1c5.2,0,8.5,3.3,8.5,7.7C474.8,115.6,471.5,118.9,466.3,118.9z M466.1,107h-5.8v8.5h5.8
			c2.8,0,4.7-1.5,4.7-4.2C470.8,108.5,468.9,107,466.1,107z"/>
	</g>
</g>
</svg>
