<?xml version="1.0" encoding="utf-8"?>
<!-- Generator: Adobe Illustrator 19.2.0, SVG Export Plug-In . SVG Version: 6.00 Build 0)  -->
<svg version="1.1" id="Capa_1" xmlns="http://www.w3.org/2000/svg" xmlns:xlink="http://www.w3.org/1999/xlink" x="0px" y="0px"
	 viewBox="0 0 512 512" style="enable-background:new 0 0 512 512;" xml:space="preserve">
<style type="text/css">
	.st0{fill:#00AEEF;}
</style>
<g>
	<g>
		<path class="st0" d="M256,134.5L73.4,285.1c0,0.2-0.1,0.5-0.2,1c-0.1,0.4-0.2,0.7-0.2,0.9v152.4c0,5.5,2,10.3,6,14.3
			c4,4,8.8,6,14.3,6h121.9v-122h81.3v122h121.9c5.5,0,10.3-2,14.3-6c4-4,6-8.8,6-14.3V287c0-0.8-0.1-1.5-0.3-1.9L256,134.5z"/>
		<path class="st0" d="M508.5,250.8L438.9,193V63.4c0-3-1-5.4-2.9-7.3c-1.9-1.9-4.3-2.9-7.3-2.9h-61c-3,0-5.4,1-7.3,2.9
			c-1.9,1.9-2.9,4.3-2.9,7.3v61.9l-77.5-64.8c-6.8-5.5-14.8-8.3-24.1-8.3c-9.3,0-17.4,2.8-24.1,8.3L3.5,250.8
			c-2.1,1.7-3.3,4-3.5,6.8c-0.2,2.9,0.5,5.4,2.2,7.5l19.7,23.5c1.7,1.9,3.9,3.1,6.7,3.5c2.5,0.2,5.1-0.5,7.6-2.2L256,106.6
			l219.8,183.2c1.7,1.5,3.9,2.2,6.7,2.2h1c2.7-0.4,5-1.6,6.7-3.5l19.7-23.5c1.7-2.1,2.4-4.6,2.2-7.5
			C511.7,254.7,510.6,252.5,508.5,250.8z"/>
	</g>
</g>
</svg>
