<?xml version="1.0" encoding="utf-8"?>
<!-- Generator: Adobe Illustrator 19.2.0, SVG Export Plug-In . SVG Version: 6.00 Build 0)  -->
<svg version="1.1" id="Capa_1" xmlns="http://www.w3.org/2000/svg" xmlns:xlink="http://www.w3.org/1999/xlink" x="0px" y="0px"
	 viewBox="0 0 49.8 49.8" style="enable-background:new 0 0 49.8 49.8;" xml:space="preserve">
<style type="text/css">
	.st0{fill:#00AEEF;}
</style>
<g>
	<g>
		<g>
			<path class="st0" d="M6,29.7v19.2c0,0.5,0.4,0.9,0.9,0.9h20.6V32.4h9.7v17.4H43c0.5,0,0.9-0.4,0.9-0.9V29.7L24.9,10.8L6,29.7z
				 M21.4,40.5h-8.8v-8.1h8.8V40.5z"/>
			<path class="st0" d="M47.7,22.8L24.9,0L14.2,10.7V6c0-1.1-0.9-2-2-2s-2,0.9-2,2v8.7l-8,8c-1,1-1,2.6,0,3.5
				C2.6,26.8,3.3,27,3.9,27s1.3-0.2,1.8-0.7L24.9,7.1l19.2,19.2c1,1,2.6,1,3.5,0C48.6,25.3,48.6,23.7,47.7,22.8z"/>
		</g>
	</g>
</g>
</svg>
