<?xml version="1.0" encoding="utf-8"?>
<!-- Generator: Adobe Illustrator 19.2.0, SVG Export Plug-In . SVG Version: 6.00 Build 0)  -->
<svg version="1.1" id="Layer_1" xmlns="http://www.w3.org/2000/svg" xmlns:xlink="http://www.w3.org/1999/xlink" x="0px" y="0px"
	 viewBox="0 0 96 96" style="enable-background:new 0 0 96 96;" xml:space="preserve">
<style type="text/css">
	.st0{fill:#FFFFFF;}
</style>
<title>contact</title>
<path class="st0" d="M84.5,12.3h-73C5.1,12.3,0,17.5,0,23.8v48.3c0,6.4,5.2,11.5,11.5,11.5h73c6.3,0,11.5-5.2,11.5-11.5V23.8
	C96,17.5,90.8,12.3,84.5,12.3z M84.6,73c-0.4,0.4-0.9,0.6-1.4,0.6c-0.5,0-1-0.2-1.3-0.5L56.2,49.2l-5.7,5c-0.7,0.6-1.6,1-2.5,1
	c-0.9,0-1.9-0.4-2.5-1l-5.6-5L14.1,73.1c-0.4,0.3-0.8,0.5-1.3,0.5c-1.1,0-1.9-0.9-1.9-1.9c0-0.5,0.2-1.1,0.6-1.4l25.4-23.7
	L11.8,24.3c-0.8-0.7-0.9-1.9-0.2-2.7c0.7-0.8,1.9-0.9,2.7-0.2c0,0,0,0,0.1,0.1L48,51.3l33.6-29.9c0.8-0.7,2-0.7,2.7,0.1
	s0.7,2-0.1,2.7c0,0,0,0-0.1,0.1L59.1,46.6l25.4,23.6C85.3,71,85.3,72.2,84.6,73z"/>
</svg>
