<?xml version="1.0" encoding="utf-8"?>
<!-- Generator: Adobe Illustrator 19.2.0, SVG Export Plug-In . SVG Version: 6.00 Build 0)  -->
<svg version="1.1" id="Layer_1" xmlns="http://www.w3.org/2000/svg" xmlns:xlink="http://www.w3.org/1999/xlink" x="0px" y="0px"
	 viewBox="0 0 96 96" style="enable-background:new 0 0 96 96;" xml:space="preserve">
<style type="text/css">
	.st0{fill:#FFFFFF;}
</style>
<title>contact</title>
<g id="XMLID_1_">
	<g>
		<path class="st0" d="M89.6,73.5c2.4,2.3,2.6,6,0.4,8.5l-6.9,7.9c-1.2,1.4-3,2.2-4.8,2.1c-8-0.3-28.9-3-50.2-24.4
			S4.5,25.9,4.5,18.2c0-1.7,0.7-3.3,1.9-4.5l8.3-8C15.9,4.6,17.4,4,19,4c1.6,0,3,0.6,4.2,1.7l10.6,9.9c2.4,2.2,2.6,5.9,0.5,8.4
			l-5.5,6.5c-1.2,1.4-1.7,3.4-1.2,5.2c1,3.7,4,11.3,13.1,20.2c8.9,8.6,16.1,11.3,19.7,12.1c1.8,0.4,3.7,0,5.1-1.3l4.7-4
			c2.4-2.1,5.9-2,8.2,0.2L89.6,73.5z"/>
		<path class="st0" d="M92.3,70.6c3.9,3.7,4.2,9.9,0.7,14l-6.9,7.9c-1.9,2.2-4.7,3.5-7.7,3.5h-0.3c-8.5-0.3-30.7-3.3-52.9-25.7
			S0.5,26.4,0.5,18.1c0-2.8,1.1-5.4,3.1-7.4l8.3-8c3.9-3.7,10-3.8,13.9-0.1l10.6,9.9c3.9,3.7,4.3,9.8,0.8,13.9l-5.5,6.6
			c-0.4,0.5-0.5,1.1-0.4,1.7c0.9,3.3,3.6,10.1,12.1,18.3c8.2,7.9,14.7,10.4,17.8,11.1c0.6,0.1,1.2,0,1.6-0.4l4.7-4
			c3.9-3.4,9.8-3.3,13.6,0.3L92.3,70.6z M90,82c2.2-2.5,2-6.2-0.4-8.5L78.4,63c-2.3-2.2-5.8-2.2-8.2-0.2l-4.7,4
			c-1.4,1.2-3.3,1.7-5.1,1.3c-3.5-0.8-10.8-3.5-19.7-12.1c-9.1-8.9-12.2-16.5-13.1-20.2c-0.5-1.8,0-3.8,1.2-5.2l5.5-6.5
			c2.1-2.5,1.9-6.2-0.5-8.4L23.1,5.7C22,4.6,20.5,4,19,4c-1.6,0-3.1,0.6-4.2,1.7l-8.3,8c-1.2,1.2-1.9,2.8-1.9,4.5
			c0,7.7,2.3,28,23.6,49.4S70.2,91.7,78.2,92c1.8,0.1,3.6-0.7,4.8-2.1L90,82z"/>
	</g>
	<g>
	</g>
</g>
</svg>
