<?xml version="1.0" encoding="utf-8"?>
<!-- Generator: Adobe Illustrator 19.2.0, SVG Export Plug-In . SVG Version: 6.00 Build 0)  -->
<svg version="1.1" id="Layer_1" xmlns="http://www.w3.org/2000/svg" xmlns:xlink="http://www.w3.org/1999/xlink" x="0px" y="0px"
	 viewBox="0 0 512 512" style="enable-background:new 0 0 512 512;" xml:space="preserve">
<style type="text/css">
	.st0{fill:#00AEEF;}
</style>
<g>
	<g>
		<path class="st0" d="M481.7,93.6C468.1,51.1,439,20,401.9,8.1C333.6-13.8,277.4,14.3,256,27.8c-21.4-13.5-77.6-41.7-145.9-19.7
			C73,20,43.9,51.1,30.3,93.7c-17.9,55.9-6.4,119.2,31,169.4c16.2,21.8,27.2,45.9,32.6,71.5c2.4,11.4,4.5,23.9,6.2,37.2
			c5.2,40,12.7,72.1,22.6,95.4c11.8,27.9,26.9,43,45.1,44.8c1,0.1,2.1,0.2,3.1,0.2c17.9,0,32.8-16,44.4-47.7
			c8.6-23.4,15.4-54.8,19.1-88.4c2.1-18.8,6.9-34,14-44c2.5-3.6,6.2-4,7.7-4c1.5,0,5.1,0.4,7.7,4c7.1,10,11.9,25.2,14,44
			c3.7,33.6,10.5,65,19.1,88.4c11.6,31.7,26.6,47.7,44.4,47.7c1,0,2-0.1,3.1-0.2c18.2-1.8,33.3-16.9,45.1-44.8
			c9.8-23.3,17.4-55.4,22.6-95.4c1.7-13.3,3.8-25.8,6.2-37.2c5.4-25.6,16.4-49.7,32.7-71.5C488.1,212.8,499.6,149.5,481.7,93.6z
			 M426.8,245.1c-18.9,25.4-31.6,53.4-37.9,83.2c-2.6,12.1-4.8,25.5-6.6,39.6c-10.5,81.4-30,112.8-40.8,114.2
			c-2.3-0.8-10-8.2-18.2-32.7c-7-20.8-12.6-48-15.8-76.8c-2.7-24.2-9.2-43.7-19.4-58c-7.4-10.4-19.4-16.6-32.1-16.6
			c-12.7,0-24.7,6.2-32.1,16.6c-10.2,14.3-16.7,33.9-19.4,58c-3.2,28.8-8.8,56.1-15.8,76.8c-8.3,24.5-16,31.9-18.2,32.7
			c-10.7-1.4-30.3-32.8-40.8-114.2c-1.8-14.1-4-27.4-6.6-39.6c-6.3-29.9-19.1-57.8-37.9-83.1c-31.6-42.4-41.5-95.6-26.5-142.4
			c10.6-33.2,32.7-57.3,60.4-66.2c29.3-9.4,59.5-8.8,89.8,1.8c23.1,8.1,37.6,19.3,37.7,19.3l9.2,7.2l9.2-7.2
			c0.1-0.1,14.7-11.3,37.8-19.4c30.3-10.6,60.5-11.2,89.8-1.8h0c27.7,8.9,49.8,33,60.4,66.2C468.2,149.5,458.3,202.7,426.8,245.1z"
			/>
	</g>
</g>
</svg>
